<?xml version="1.0" encoding="UTF-8"?>
<svg version="1.1" xmlns="http://www.w3.org/2000/svg" width="500" height="500">
<path d="M0 0 C165 0 330 0 500 0 C500 165 500 330 500 500 C335 500 170 500 0 500 C0 335 0 170 0 0 Z " fill="transparent" transform="translate(0,0)"/>
<path d="M0 0 C0.81637939 -0.0033284 1.63275879 -0.0066568 2.47387695 -0.01008606 C4.19498131 -0.01512051 5.91609532 -0.01749547 7.63720703 -0.01733398 C10.21534199 -0.0195021 12.79303526 -0.0376444 15.37109375 -0.05664062 C62.3174594 -0.21962436 108.16123606 17.78648848 142.25 50.16796875 C143.57792341 51.29934941 144.91091589 52.42482005 146.25 53.54296875 C179.31900353 82.58734711 201.32317295 129.38391464 204.97265625 173.03515625 C206.03514777 189.72951177 206.07142465 206.65540013 203.25 223.16796875 C203.01023437 225.04162109 203.01023437 225.04162109 202.765625 226.953125 C197.19635405 267.75430641 174.87155001 303.59273193 146.25 332.16796875 C145.62480469 332.83957031 144.99960937 333.51117188 144.35546875 334.203125 C118.0509971 362.00764798 80.16718636 377.24266683 43.25 384.16796875 C42.50008789 384.33224365 41.75017578 384.49651855 40.97753906 384.66577148 C2.99481975 391.65918839 -38.49678212 384.24943207 -72.75 367.16796875 C-73.41854004 366.83651855 -74.08708008 366.50506836 -74.77587891 366.16357422 C-93.90083753 356.57533265 -110.34923883 343.87443331 -125.75 329.16796875 C-126.40484375 328.56597656 -127.0596875 327.96398437 -127.734375 327.34375 C-145.44121 310.60657501 -158.78644685 287.60722718 -167.75 265.16796875 C-168.01796387 264.50941895 -168.28592773 263.85086914 -168.56201172 263.17236328 C-177.54529575 240.96082756 -181.30736319 218.08517649 -181.14111328 194.16650391 C-181.12492267 191.40477789 -181.14113706 188.64449692 -181.16015625 185.8828125 C-181.17283677 174.93056165 -180.19288752 164.85188489 -177.75 154.16796875 C-177.44051431 152.63064839 -177.13276153 151.09297611 -176.828125 149.5546875 C-168.87720143 114.03806192 -150.72158575 83.31510704 -125.75 57.16796875 C-124.87730469 56.24242187 -124.00460938 55.316875 -123.10546875 54.36328125 C-111.72302182 42.59753084 -98.86508893 33.36771666 -84.75 25.16796875 C-83.74694824 24.58402344 -83.74694824 24.58402344 -82.72363281 23.98828125 C-66.43081585 14.63775751 -49.09475877 8.13336257 -30.75 4.16796875 C-29.49058594 3.88179687 -28.23117188 3.595625 -26.93359375 3.30078125 C-17.89764914 1.28853484 -9.2465753 0.01351088 0 0 Z " fill="#FEFEFE" transform="translate(237.75,56.83203125)"/>
<path d="M0 0 C143.14769976 0 143.14769976 0 167.67578125 23.61328125 C176.95404132 33.65873595 181.19500913 46.55191724 182 60 C182.06445312 60.7321875 182.12890625 61.464375 182.1953125 62.21875 C182.92539496 76.82039925 177.14656817 92.41431956 167.625 103.3125 C161.01382873 110.22216897 154.08229851 115.89243636 146 121 C146.81082031 121.29132813 147.62164062 121.58265625 148.45703125 121.8828125 C166.32396775 128.49711495 181.41988679 137.93542169 190.23828125 155.4609375 C197.44913332 172.08522919 197.05438852 191.37293661 190.73974609 208.16064453 C182.83560415 227.81404566 166.95883207 240.64827225 148 249 C103.10584648 267.59441378 42.47861189 259 0 259 C0 173.53 0 88.06 0 0 Z " fill="#303034" transform="translate(160,122)"/>
<path d="M0 0 C0.82822266 0.1129541 1.65644531 0.2259082 2.50976562 0.34228516 C32.68468405 4.57606879 63.22934167 16.08416019 88 34 C88.64759277 34.4640625 89.29518555 34.928125 89.96240234 35.40625 C97.61456044 40.92313093 104.98817415 46.6142985 111.8984375 53.05078125 C113.77927667 54.79527706 115.70618031 56.43467568 117.6875 58.0625 C120.85042891 60.75246758 123.52336828 63.73253023 126.203125 66.8984375 C127.37046957 68.26372311 128.56742193 69.60442771 129.796875 70.9140625 C167.45577937 111.2184271 182.45035342 166.41450555 181.12548828 220.35449219 C180.85175354 228.30664626 180.21257884 236.1357507 179 244 C178.87641113 244.80228027 178.75282227 245.60456055 178.62548828 246.43115234 C169.85546234 300.57144581 137.43462239 350.04647885 93.25 382 C46.94294793 414.80871678 -9.89402755 427.70159655 -66 419 C-107.50224568 411.68982088 -145.76607259 392.36648657 -176 363 C-176.62938477 362.39639648 -177.25876953 361.79279297 -177.90722656 361.17089844 C-186.776804 352.64131439 -194.90508637 344.07137568 -202 334 C-202.39316406 333.45649902 -202.78632813 332.91299805 -203.19140625 332.35302734 C-234.09111849 289.49333806 -248.70502045 231.72551118 -240.39794922 179.33154297 C-230.58978575 121.86653613 -200.48951824 71.11973334 -152.875 37.0625 C-108.09273052 5.63939655 -54.29633006 -7.93406802 0 0 Z M-69 20 C-69.73991684 20.14968735 -70.47983368 20.29937469 -71.24217224 20.45359802 C-106.22092095 27.61035995 -137.85405714 45.07190776 -163.56787109 69.63525391 C-164.94699053 70.94948467 -166.34235213 72.24660661 -167.73828125 73.54296875 C-193.64038574 98.32052456 -211.35251749 132.21509171 -219 167 C-219.42925781 168.79630859 -219.42925781 168.79630859 -219.8671875 170.62890625 C-221.93454388 179.28226938 -223.1582207 187.49327357 -223.203125 196.38671875 C-223.20882507 197.28381058 -223.21452515 198.1809024 -223.22039795 199.10517883 C-223.2298127 201.00378252 -223.23636785 202.90240229 -223.24023438 204.80102539 C-223.24981879 207.63393923 -223.28082439 210.46608791 -223.3125 213.29882812 C-223.49798131 245.12120428 -215.00894126 275.03147194 -200 303 C-199.09507812 304.73636719 -199.09507812 304.73636719 -198.171875 306.5078125 C-189.96930609 321.63776103 -178.90672751 334.66803222 -167 347 C-166.401875 347.6496875 -165.80375 348.299375 -165.1875 348.96875 C-140.29732504 375.35233546 -103.74244291 392.00046764 -69 400 C-68.278125 400.16806152 -67.55625 400.33612305 -66.8125 400.50927734 C-55.82990449 402.94452658 -44.89178602 403.26082508 -33.6875 403.25 C-33.01385406 403.24940582 -32.34020813 403.24881165 -31.64614868 403.24819946 C17.0189314 403.08428404 61.08562707 386.43712439 98 355 C98.80308594 354.32066406 99.60617187 353.64132812 100.43359375 352.94140625 C105.4251341 348.62326089 109.7637663 344.04924825 114 339 C114.83402344 338.05382812 115.66804688 337.10765625 116.52734375 336.1328125 C132.82084024 317.55144116 144.63391241 296.19930138 153 273 C153.25120605 272.30696777 153.50241211 271.61393555 153.76123047 270.89990234 C156.62841029 262.82364774 158.61294815 254.65896969 160.25 246.25 C160.49508301 244.99135132 160.49508301 244.99135132 160.74511719 243.70727539 C169.71323084 194.67425741 158.51365654 142.40354972 130.375 101.375 C107.36116648 68.72296332 78.27829063 46.17216916 42 30 C41.28908203 29.68015137 40.57816406 29.36030273 39.84570312 29.03076172 C18.30416309 19.54482975 -5.22013066 16.81321419 -28.50366211 16.75976562 C-31.03338162 16.75011113 -33.56226857 16.71901753 -36.09179688 16.6875 C-47.34630505 16.61487745 -57.97876477 17.75057877 -69 20 Z " fill="#323236" transform="translate(280,40)"/>
<path d="M0 0 C12.7153125 -0.0928125 12.7153125 -0.0928125 25.6875 -0.1875 C28.33612061 -0.21481201 30.98474121 -0.24212402 33.71362305 -0.27026367 C35.85465034 -0.27903999 37.9956827 -0.2866812 40.13671875 -0.29296875 C41.21457642 -0.30831665 42.29243408 -0.32366455 43.4029541 -0.33947754 C58.37576685 -0.34452966 72.84304365 3.0707566 83.86328125 13.5546875 C90.13762328 20.73519592 91.42691863 29.22405205 91.34375 38.4765625 C90.50929863 47.02968902 86.55601046 55.35979588 80 61 C74.52801602 65.22692453 68.58351545 67.70471263 62.0625 69.8125 C61.43102051 70.01955566 60.79954102 70.22661133 60.14892578 70.43994141 C51.20045025 73.13242314 41.79358667 73.15205582 32.51953125 73.09765625 C31.6853064 73.09664917 30.85108154 73.09564209 29.99157715 73.09460449 C26.9318704 73.0894476 23.87218353 73.07548765 20.8125 73.0625 C13.944375 73.041875 7.07625 73.02125 0 73 C0 48.91 0 24.82 0 0 Z " fill="#FDFDFD" transform="translate(211,269)"/>
<path d="M0 0 C6.3525 -0.04125 12.705 -0.0825 19.25 -0.125 C21.2290332 -0.14320801 23.20806641 -0.16141602 25.24707031 -0.18017578 C41.31313083 -0.2668941 57.86723121 0.11208622 70.12109375 11.83984375 C77.29193441 20.08407428 77.63537777 29.60106194 77.17919922 39.98876953 C76.80009743 44.24359316 75.30602393 47.46890086 73 51 C72.5875 51.69351563 72.175 52.38703125 71.75 53.1015625 C67.94253818 58.87765515 63.07963881 61.88699072 57 65 C55.88625 65.5775 54.7725 66.155 53.625 66.75 C42.12202274 70.71654388 30.24604417 70.2415165 18.25 70.125 C12.2275 70.08375 6.205 70.0425 0 70 C0 46.9 0 23.8 0 0 Z " fill="#FCFCFC" transform="translate(211,161)"/>
</svg>
